<svg xmlns="http://www.w3.org/2000/svg" xmlns:xlink="http://www.w3.org/1999/xlink" viewBox="0 0 1920.5 1104"><defs><style>.cls-1{fill:none;}.cls-2{fill:#bc807f;}.cls-3{fill:#8eaea9;}.cls-4{stroke-miterlimit:10;fill:url(#Dots_Teal_);stroke:url(#Dots_Pink_);}</style><pattern id="Dots_Teal_" data-name="Dots (Teal)" width="15.94" height="15.87" patternTransform="translate(0 -4.63)" patternUnits="userSpaceOnUse" viewBox="0 0 15.94 15.88"><rect class="cls-1" width="15.94" height="15.87"/><circle class="cls-3" cx="15.94" cy="15.88" r="0.97"/><circle class="cls-3" cy="15.88" r="0.97"/><circle class="cls-3" cx="7.97" cy="7.94" r="0.97"/><circle class="cls-3" cx="15.94" r="0.97"/><circle class="cls-3" r="0.97"/></pattern><pattern id="Dots_Pink_" data-name="Dots (Pink)" width="13.94" height="13.87" patternTransform="translate(0 -0.75)" patternUnits="userSpaceOnUse" viewBox="0 0 13.94 13.88"><rect class="cls-1" width="13.94" height="13.87"/><circle class="cls-2" cx="13.94" cy="13.88" r="0.97"/><circle class="cls-2" cy="13.88" r="0.97"/><circle class="cls-2" cx="6.97" cy="6.94" r="0.97"/><circle class="cls-2" cx="13.94" r="0.97"/><circle class="cls-2" r="0.97"/></pattern></defs><title>Asset 1</title><g id="Layer_2" data-name="Layer 2"><g id="Layer_2-2" data-name="Layer 2"><path class="cls-4" d="M1920,.5s-277.5,0-496.5,346c-144.19,227.8-551,438-814,480s-395,213-395,213H1920Z"/><path class="cls-3" d="M1920,165.25S1565,228,1422,493,1146,891.07,680,866C364,849,115,967,0,1104v-2H1920Z"/></g></g></svg>